<svg width="50" height="50" viewBox="0 0 50 50" fill="none" xmlns="http://www.w3.org/2000/svg">
<rect width="50" height="50" rx="3" fill="#F76C07"/>
<path d="M8.51431 24L10.4423 18.16H12.5623L14.5623 24H13.2023L11.5863 19.064L12.0023 19.232H10.9703L11.4023 19.064L9.82631 24H8.51431ZM9.97831 22.552L10.3783 21.464H12.6663L13.0743 22.552H9.97831ZM14.9721 24V19.616H15.9881V21.496H15.9161C15.9161 21.048 15.9721 20.6747 16.0841 20.376C16.2015 20.0773 16.3775 19.8533 16.6121 19.704C16.8468 19.5547 17.1321 19.48 17.4681 19.48H17.5241C18.0361 19.48 18.4255 19.648 18.6921 19.984C18.9641 20.3147 19.1001 20.8187 19.1001 21.496V24H17.8201V21.424C17.8201 21.1893 17.7508 20.9973 17.6121 20.848C17.4735 20.6987 17.2868 20.624 17.0521 20.624C16.8121 20.624 16.6175 20.7013 16.4681 20.856C16.3241 21.0053 16.2521 21.2027 16.2521 21.448V24H14.9721ZM21.3909 24.136C20.8842 24.136 20.4949 23.9733 20.2229 23.648C19.9509 23.3173 19.8149 22.8213 19.8149 22.16V19.616H21.0949V22.224C21.0949 22.4587 21.1615 22.6453 21.2949 22.784C21.4282 22.9227 21.6069 22.992 21.8309 22.992C22.0602 22.992 22.2469 22.92 22.3909 22.776C22.5349 22.632 22.6069 22.4373 22.6069 22.192V19.616H23.8869V24H22.8709V22.152H22.9589C22.9589 22.5947 22.9002 22.9653 22.7829 23.264C22.6709 23.5573 22.5029 23.776 22.2789 23.92C22.0549 24.064 21.7775 24.136 21.4469 24.136H21.3909ZM21.2149 19.104L21.9349 17.432H23.2469L22.3349 19.104H21.2149ZM24.7871 24V19.616H25.8031V21.496H25.7311C25.7311 21.048 25.7871 20.6747 25.8991 20.376C26.0165 20.0773 26.1925 19.8533 26.4271 19.704C26.6618 19.5547 26.9471 19.48 27.2831 19.48H27.3391C27.8511 19.48 28.2405 19.648 28.5071 19.984C28.7791 20.3147 28.9151 20.8187 28.9151 21.496V24H27.6351V21.424C27.6351 21.1893 27.5658 20.9973 27.4271 20.848C27.2885 20.6987 27.1018 20.624 26.8671 20.624C26.6271 20.624 26.4325 20.7013 26.2831 20.856C26.1391 21.0053 26.0671 21.2027 26.0671 21.448V24H24.7871ZM31.6939 24.152C31.3152 24.152 30.9845 24.0907 30.7019 23.968C30.4245 23.84 30.1925 23.6693 30.0059 23.456C29.8192 23.2427 29.6805 23.0027 29.5899 22.736C29.4992 22.464 29.4539 22.184 29.4539 21.896V21.744C29.4539 21.4453 29.5019 21.16 29.5979 20.888C29.6939 20.6107 29.8352 20.3653 30.0219 20.152C30.2085 19.9387 30.4405 19.7707 30.7179 19.648C31.0005 19.5253 31.3232 19.464 31.6859 19.464C32.0805 19.464 32.4299 19.5413 32.7339 19.696C33.0379 19.8453 33.2805 20.056 33.4619 20.328C33.6432 20.6 33.7445 20.912 33.7659 21.264H32.5099C32.4885 21.0667 32.4085 20.9013 32.2699 20.768C32.1365 20.6293 31.9419 20.56 31.6859 20.56C31.4725 20.56 31.2939 20.6133 31.1499 20.72C31.0112 20.8267 30.9072 20.9733 30.8379 21.16C30.7685 21.3467 30.7339 21.568 30.7339 21.824C30.7339 22.0587 30.7659 22.272 30.8299 22.464C30.8939 22.6507 30.9952 22.7973 31.1339 22.904C31.2779 23.0053 31.4645 23.056 31.6939 23.056C31.8645 23.056 32.0085 23.0267 32.1259 22.968C32.2485 22.904 32.3445 22.8187 32.4139 22.712C32.4885 22.6 32.5339 22.472 32.5499 22.328H33.7979C33.7819 22.6907 33.6805 23.0107 33.4939 23.288C33.3072 23.56 33.0592 23.7733 32.7499 23.928C32.4405 24.0773 32.0885 24.152 31.6939 24.152ZM34.5445 24V19.616H35.8245V24H34.5445ZM33.9605 20.56V19.616H35.8245V20.56H33.9605ZM35.0405 19.184C34.8005 19.184 34.6218 19.1227 34.5045 19C34.3925 18.872 34.3365 18.712 34.3365 18.52C34.3365 18.3227 34.3925 18.1627 34.5045 18.04C34.6218 17.912 34.8005 17.848 35.0405 17.848C35.2805 17.848 35.4565 17.912 35.5685 18.04C35.6858 18.1627 35.7445 18.3227 35.7445 18.52C35.7445 18.712 35.6858 18.872 35.5685 19C35.4565 19.1227 35.2805 19.184 35.0405 19.184ZM38.8644 24.152C38.4804 24.152 38.139 24.0933 37.8404 23.976C37.5417 23.8533 37.2884 23.688 37.0804 23.48C36.8777 23.272 36.723 23.0347 36.6164 22.768C36.5097 22.496 36.4564 22.2107 36.4564 21.912V21.728C36.4564 21.424 36.5097 21.136 36.6164 20.864C36.7284 20.5867 36.8884 20.344 37.0964 20.136C37.3097 19.928 37.5657 19.7653 37.8644 19.648C38.163 19.5253 38.4964 19.464 38.8644 19.464C39.243 19.464 39.579 19.5253 39.8724 19.648C40.171 19.7653 40.4244 19.928 40.6324 20.136C40.8404 20.344 41.0004 20.5867 41.1124 20.864C41.2244 21.136 41.2804 21.424 41.2804 21.728V21.912C41.2804 22.2107 41.227 22.496 41.1204 22.768C41.0137 23.0347 40.8564 23.272 40.6484 23.48C40.4457 23.688 40.195 23.8533 39.8964 23.976C39.5977 24.0933 39.2537 24.152 38.8644 24.152ZM38.8644 23.072C39.115 23.072 39.323 23.0187 39.4884 22.912C39.6537 22.8053 39.779 22.656 39.8644 22.464C39.955 22.272 40.0004 22.0587 40.0004 21.824C40.0004 21.5733 39.955 21.3547 39.8644 21.168C39.7737 20.976 39.643 20.824 39.4724 20.712C39.307 20.6 39.1044 20.544 38.8644 20.544C38.6297 20.544 38.427 20.6 38.2564 20.712C38.0857 20.824 37.955 20.976 37.8644 21.168C37.779 21.3547 37.7364 21.5733 37.7364 21.824C37.7364 22.0587 37.779 22.272 37.8644 22.464C37.9497 22.656 38.0777 22.8053 38.2484 22.912C38.419 23.0187 38.6244 23.072 38.8644 23.072ZM16.0949 34V28.16H17.4069V34H16.0949ZM17.2469 34V32.848H19.6949V34H17.2469ZM20.4118 34V29.616H21.6918V34H20.4118ZM19.8278 30.56V29.616H21.6918V30.56H19.8278ZM20.9078 29.184C20.6678 29.184 20.4892 29.1227 20.3718 29C20.2598 28.872 20.2038 28.712 20.2038 28.52C20.2038 28.3227 20.2598 28.1627 20.3718 28.04C20.4892 27.912 20.6678 27.848 20.9078 27.848C21.1478 27.848 21.3238 27.912 21.4358 28.04C21.5532 28.1627 21.6118 28.3227 21.6118 28.52C21.6118 28.712 21.5532 28.872 21.4358 29C21.3238 29.1227 21.1478 29.184 20.9078 29.184ZM23.4437 34L22.1317 29.616H23.4517L24.6837 34H23.4437ZM23.8437 34V32.936H25.1317V34H23.8437ZM24.3157 34L25.3797 29.616H26.6117L25.4757 34H24.3157ZM27.0892 34V29.616H28.1052V31.496H28.0812C28.0812 30.8773 28.2118 30.4 28.4732 30.064C28.7398 29.728 29.1238 29.56 29.6252 29.56H29.7932V30.664H29.4732C29.1212 30.664 28.8492 30.76 28.6572 30.952C28.4652 31.1387 28.3692 31.4107 28.3692 31.768V34H27.0892ZM32.1609 34.152C31.7876 34.152 31.4569 34.088 31.1689 33.96C30.8862 33.832 30.6489 33.6613 30.4569 33.448C30.2702 33.2293 30.1262 32.9867 30.0249 32.72C29.9289 32.448 29.8809 32.1707 29.8809 31.888V31.728C29.8809 31.4347 29.9289 31.1547 30.0249 30.888C30.1262 30.616 30.2702 30.3733 30.4569 30.16C30.6436 29.9467 30.8756 29.7787 31.1529 29.656C31.4356 29.528 31.7556 29.464 32.1129 29.464C32.5822 29.464 32.9769 29.5707 33.2969 29.784C33.6222 29.992 33.8702 30.2667 34.0409 30.608C34.2116 30.944 34.2969 31.312 34.2969 31.712V32.144H30.4169V31.416H33.5209L33.1049 31.752C33.1049 31.4907 33.0676 31.2667 32.9929 31.08C32.9182 30.8933 32.8062 30.752 32.6569 30.656C32.5129 30.5547 32.3316 30.504 32.1129 30.504C31.8889 30.504 31.6996 30.5547 31.5449 30.656C31.3902 30.7573 31.2729 30.9067 31.1929 31.104C31.1129 31.296 31.0729 31.5333 31.0729 31.816C31.0729 32.0773 31.1102 32.3067 31.1849 32.504C31.2596 32.696 31.3769 32.8453 31.5369 32.952C31.6969 33.0587 31.9049 33.112 32.1609 33.112C32.3956 33.112 32.5876 33.0667 32.7369 32.976C32.8862 32.8853 32.9876 32.7733 33.0409 32.64H34.2169C34.1529 32.9333 34.0276 33.1947 33.8409 33.424C33.6542 33.6533 33.4196 33.832 33.1369 33.96C32.8542 34.088 32.5289 34.152 32.1609 34.152Z" fill="white"/>
</svg>
